<svg xmlns="http://www.w3.org/2000/svg" viewBox="0 0 32 32" width="64px" height="64px">
    <path fill="#e6ecff"
        d="M20,9a4.9478,4.9478,0,0,1,1.2813-3.3286A1,1,0,0,0,20.54,4H5A5,5,0,0,0,5,14H20.54a1,1,0,0,0,.7413-1.6714A4.9478,4.9478,0,0,1,20,9Z" />
    <path fill="#e6ecff"
        d="M27,18H11.46a1,1,0,0,0-.7412,1.6714,4.9645,4.9645,0,0,1,0,6.6572A1,1,0,0,0,11.46,28H27a5,5,0,0,0,0-10Z" />
    <circle cx="7" cy="23" r="7" fill="#4527a0" />
    <circle cx="25" cy="9" r="7" fill="#4527a0" />
</svg>